<svg xmlns="http://www.w3.org/2000/svg">
  <symbol viewBox="0 0 640 640" id="email">
    <path fill="currentColor"
      d="M112 128C85.5 128 64 149.5 64 176C64 191.1 71.1 205.3 83.2 214.4L291.2 370.4C308.3 383.2 331.7 383.2 348.8 370.4L556.8 214.4C568.9 205.3 576 191.1 576 176C576 149.5 554.5 128 528 128L112 128zM64 260L64 448C64 483.3 92.7 512 128 512L512 512C547.3 512 576 483.3 576 448L576 260L377.6 408.8C343.5 434.4 296.5 434.4 262.4 408.8L64 260z">
    </path>
  </symbol>
  <symbol viewBox="0 0 640 640" id="location">
    <path fill="currentColor"
      d="M128 252.6C128 148.4 214 64 320 64C426 64 512 148.4 512 252.6C512 371.9 391.8 514.9 341.6 569.4C329.8 582.2 310.1 582.2 298.3 569.4C248.1 514.9 127.9 371.9 127.9 252.6zM320 320C355.3 320 384 291.3 384 256C384 220.7 355.3 192 320 192C284.7 192 256 220.7 256 256C256 291.3 284.7 320 320 320z">
    </path>
  </symbol>
  <symbol viewBox="0 0 640 640" id="phone">
    <path fill="currentColor"
      d="M376 32C504.1 32 608 135.9 608 264C608 277.3 597.3 288 584 288C570.7 288 560 277.3 560 264C560 162.4 477.6 80 376 80C362.7 80 352 69.3 352 56C352 42.7 362.7 32 376 32zM384 224C401.7 224 416 238.3 416 256C416 273.7 401.7 288 384 288C366.3 288 352 273.7 352 256C352 238.3 366.3 224 384 224zM352 152C352 138.7 362.7 128 376 128C451.1 128 512 188.9 512 264C512 277.3 501.3 288 488 288C474.7 288 464 277.3 464 264C464 215.4 424.6 176 376 176C362.7 176 352 165.3 352 152zM176.1 65.4C195.8 60 216.4 70.1 224.2 88.9L264.7 186.2C271.6 202.7 266.8 221.8 252.9 233.2L208.8 269.3C241.3 340.9 297.8 399.3 368.1 434.2L406.7 387C418 373.1 437.1 368.4 453.7 375.2L551 415.8C569.8 423.6 579.9 444.2 574.5 463.9L573 469.4C555.4 534.1 492.9 589.3 416.6 573.2C241.6 536.1 103.9 398.4 66.8 223.4C50.7 147.1 105.9 84.6 170.5 66.9L176 65.4z">
    </path>
  </symbol>
</svg>